<?xml version="1.0" encoding="UTF-8"?>
<svg width="100px" height="100px" viewBox="0 0 100 100" version="1.1" xmlns="http://www.w3.org/2000/svg" xmlns:xlink="http://www.w3.org/1999/xlink">
    <!-- Generator: Sketch 48.1 (47250) - http://www.bohemiancoding.com/sketch -->
    <title>支付宝</title>
    <desc>Created with Sketch.</desc>
    <defs></defs>
    <g id="Page-1" stroke="none" stroke-width="1" fill="none" fill-rule="evenodd">
        <g id="支付宝">
            <text id="ALIPAY" font-family="PingFangSC-Medium, PingFang SC" font-size="9" font-weight="400" line-spacing="9" letter-spacing="2.33999991" fill="#3A3937">
                <tspan x="27" y="94">ALIPA</tspan>
                <tspan x="64.2869996" y="94" letter-spacing="2.10599995">Y</tspan>
            </text>
            <g id="支付宝支付" transform="translate(23.000000, 7.000000)" fill="#2E99F1" fill-rule="nonzero">
                <path d="M53.9951211,36.9546181 L53.9951211,10.4156574 C53.9951211,4.69464812 49.3477592,0.0520526769 43.6174699,0.0520526769 L10.4075098,0.0520526769 C4.68091072,0.0520526769 0.0332648871,4.69464812 0.0332648871,10.4156574 L0.0332648871,43.5915559 C0.0332648871,49.3122816 4.67722053,53.954877 10.4075098,53.954877 L43.6174699,53.954877 C48.7201439,53.954877 52.9664112,50.2690442 53.8330369,45.4211446 C51.0810106,44.2315717 39.1554687,39.0867751 32.9429007,36.1251781 C28.2149224,41.8464709 23.263546,45.2796436 15.8000053,45.2796436 C8.33646456,45.2796436 3.35499893,40.6872399 3.95195729,35.0674649 C4.3465232,31.3782292 6.87940928,25.3475623 17.8807018,26.3817393 C23.678266,26.9242073 26.3326443,28.0060239 31.0611903,29.5656546 C32.2851962,27.3257413 33.299997,24.8589726 34.0723811,22.2345393 L13.1056026,22.2345393 L13.1056026,20.1590961 L23.4795637,20.1590961 L23.4795637,16.4327129 L10.8256361,16.4327129 L10.8256361,14.1485627 L23.4795637,14.1485627 L23.4795637,8.77152295 C23.4795637,8.77152295 23.5942433,7.92903877 24.5253053,7.92903877 L29.7122858,7.92903877 L29.7122858,14.1485627 L43.2021822,14.1485627 L43.2021822,16.4327129 L29.7122858,16.4327129 L29.7122858,20.1590961 L40.7172685,20.1590961 C39.7053063,24.272835 38.1707571,28.0528128 36.2484547,31.3546929 C39.445574,32.5102375 53.9951211,36.9546181 53.9951211,36.9546181 Z M14.9739716,41.7214169 C7.08889823,41.7214169 5.84104805,36.7490304 6.25917437,34.6699008 C6.67389437,32.6012633 8.95726719,29.9028185 13.3417745,29.9028185 C18.380296,29.9028185 22.8928243,31.1896556 28.309164,33.8240138 C24.5048674,38.7737147 19.8305386,41.7214169 14.9739716,41.7214169 Z" id="Shape"></path>
            </g>
            <text font-family="PingFangSC-Medium, PingFang SC" font-size="16" font-weight="400" line-spacing="16" fill="#222222">
                <tspan x="26" y="83">支付宝</tspan>
            </text>
        </g>
    </g>
</svg>