<?xml version="1.0" encoding="UTF-8"?>
<svg width="477px" height="215px" viewBox="0 0 477 215" version="1.1" xmlns="http://www.w3.org/2000/svg" xmlns:xlink="http://www.w3.org/1999/xlink">
    <!-- Generator: Sketch 48.1 (47250) - http://www.bohemiancoding.com/sketch -->
    <title>logoquan(bai)</title>
    <desc>Created with Sketch.</desc>
    <defs></defs>
    <g id="Page-1" stroke="none" stroke-width="1" fill="none" fill-rule="evenodd">
        <g id="logoquan(bai)" fill="#FFFFFF">
            <g id="XMLID_56_" transform="translate(185.173333, 2.986667)" fill-rule="nonzero">
                <path d="M32.7537778,139.178667 L32.6542222,139.178667 C29.6675556,139.178667 27.2782222,136.789333 27.2782222,133.802667 L27.2782222,7.168 C27.2782222,4.18133333 29.6675556,1.792 32.6542222,1.792 L32.7537778,1.792 C35.7404444,1.792 38.1297778,4.18133333 38.1297778,7.168 L38.1297778,133.902222 C38.1297778,136.789333 35.7404444,139.178667 32.7537778,139.178667 Z" id="XMLID_69_"></path>
                <path d="M219.420444,139.178667 L219.320889,139.178667 C216.334222,139.178667 213.944889,136.789333 213.944889,133.802667 L213.944889,7.168 C213.944889,4.18133333 216.334222,1.792 219.320889,1.792 L219.420444,1.792 C222.407111,1.792 224.796444,4.18133333 224.796444,7.168 L224.796444,133.902222 C224.696889,136.789333 222.307556,139.178667 219.420444,139.178667 Z" id="XMLID_68_"></path>
                <path d="M112.298667,57.8417778 L112.199111,57.8417778 C109.212444,57.8417778 106.823111,55.4524444 106.823111,52.4657778 L106.823111,5.97333333 C106.823111,2.98666667 109.212444,0.597333333 112.199111,0.597333333 L112.298667,0.597333333 C115.285333,0.597333333 117.674667,2.98666667 117.674667,5.97333333 L117.674667,52.4657778 C117.674667,55.4524444 115.285333,57.8417778 112.298667,57.8417778 Z" id="XMLID_67_"></path>
                <path d="M141.866667,83.1288889 L141.866667,83.0293333 C141.866667,80.0426667 144.256,77.6533333 147.242667,77.6533333 L286.122667,77.6533333 C289.109333,77.6533333 291.498667,80.0426667 291.498667,83.0293333 L291.498667,83.1288889 C291.498667,86.1155556 289.109333,88.5048889 286.122667,88.5048889 L147.242667,88.5048889 C144.256,88.5048889 141.866667,86.1155556 141.866667,83.1288889 Z" id="XMLID_66_"></path>
                <path d="M159.687111,19.712 L159.687111,19.6124444 C159.687111,16.6257778 162.076444,14.2364444 165.063111,14.2364444 L271.089778,14.2364444 C274.076444,14.2364444 276.465778,16.6257778 276.465778,19.6124444 L276.465778,19.712 C276.465778,22.6986667 274.076444,25.088 271.089778,25.088 L165.063111,25.088 C162.076444,25.088 159.687111,22.6986667 159.687111,19.712 Z" id="XMLID_65_"></path>
                <path d="M145.450667,25.088 L5.57511111,25.088 C2.58844444,25.088 0.199111111,22.6986667 0.199111111,19.712 L0.199111111,19.6124444 C0.199111111,16.6257778 2.58844444,14.2364444 5.57511111,14.2364444 L145.450667,14.2364444 C148.437333,14.2364444 150.826667,16.6257778 150.826667,19.6124444 L150.826667,19.712 C150.826667,22.6986667 148.437333,25.088 145.450667,25.088 Z" id="XMLID_64_"></path>
                <path d="M145.450667,57.8417778 L79.0471111,57.8417778 C76.0604444,57.8417778 73.6711111,55.4524444 73.6711111,52.4657778 L73.6711111,52.3662222 C73.6711111,49.3795556 76.0604444,46.9902222 79.0471111,46.9902222 L145.450667,46.9902222 C148.437333,46.9902222 150.826667,49.3795556 150.826667,52.3662222 L150.826667,52.4657778 C150.826667,55.4524444 148.437333,57.8417778 145.450667,57.8417778 Z" id="XMLID_63_"></path>
                <path d="M8.16355556,139.178667 L8.064,139.178667 C5.07733333,139.178667 2.688,136.789333 2.688,133.802667 L2.688,39.0257778 C2.688,36.0391111 5.07733333,33.6497778 8.064,33.6497778 L8.16355556,33.6497778 C11.1502222,33.6497778 13.5395556,36.0391111 13.5395556,39.0257778 L13.5395556,133.802667 C13.5395556,136.789333 11.1502222,139.178667 8.16355556,139.178667 Z" id="XMLID_62_"></path>
                <path d="M57.344,139.178667 L57.2444444,139.178667 C54.2577778,139.178667 51.8684444,136.789333 51.8684444,133.802667 L51.8684444,39.0257778 C51.8684444,36.0391111 54.2577778,33.6497778 57.2444444,33.6497778 L57.344,33.6497778 C60.3306667,33.6497778 62.72,36.0391111 62.72,39.0257778 L62.72,133.802667 C62.72,136.789333 60.3306667,139.178667 57.344,139.178667 Z" id="XMLID_61_"></path>
                <path d="M166.656,25.088 L163.669333,25.088 C161.479111,25.088 159.786667,23.296 159.786667,21.2053333 L159.786667,7.46666667 C159.786667,5.27644444 161.578667,3.584 163.669333,3.584 L166.656,3.584 C168.846222,3.584 170.538667,5.376 170.538667,7.46666667 L170.538667,21.2053333 C170.538667,23.296 168.746667,25.088 166.656,25.088 Z" id="XMLID_60_"></path>
                <path d="M127.928889,88.2062222 L82.2328889,88.1066667 C79.2462222,88.1066667 76.8568889,85.7173333 76.8568889,82.7306667 C76.8568889,79.744 79.2462222,77.3546667 82.2328889,77.3546667 L127.928889,77.4542222 C130.915556,77.4542222 133.304889,79.8435556 133.304889,82.8302222 C133.304889,85.7173333 130.816,88.2062222 127.928889,88.2062222 Z" id="XMLID_59_"></path>
                <path d="M142.165333,82.5315556 C142.165333,82.6311111 142.165333,100.750222 142.165333,100.849778 C141.966222,115.783111 129.820444,127.829333 114.887111,127.829333 C99.9537778,127.829333 87.808,115.783111 87.6088889,100.849778 C87.6088889,100.750222 87.6088889,82.6311111 87.6088889,82.5315556 L76.8568889,82.5315556 C76.8568889,82.6311111 76.8568889,100.750222 76.8568889,100.849778 C77.056,121.756444 93.9804444,138.581333 114.887111,138.581333 C135.793778,138.581333 152.817778,121.656889 152.917333,100.849778 C152.917333,100.750222 152.917333,82.6311111 152.917333,82.5315556 L142.165333,82.5315556 Z" id="XMLID_58_"></path>
                <circle id="XMLID_57_" cx="147.640889" cy="83.0293333" r="5.376"></circle>
            </g>
            <g id="XMLID_49_" transform="translate(0.000000, 167.253333)">
                <g id="XMLID_51_" transform="translate(0.000000, 10.951111)" fill-rule="nonzero">
                    <path d="M21.1057778,20.1102222 C21.1057778,20.7075556 20.8071111,21.2053333 20.3093333,21.6035556 C19.712,21.9022222 18.9155556,22.1013333 17.6213333,22.1013333 C16.4266667,22.1013333 15.5306667,21.9022222 15.0328889,21.6035556 C14.5351111,21.3048889 14.2364444,20.8071111 14.2364444,20.2097778 L14.2364444,2.38933333 C14.2364444,1.09511111 15.3315556,0.497777778 17.6213333,0.497777778 C18.7164444,0.497777778 19.6124444,0.597333333 20.2097778,0.896 C20.8071111,1.19466667 21.1057778,1.69244444 21.1057778,2.38933333 L21.1057778,20.1102222 Z" id="XMLID_54_"></path>
                    <ellipse id="XMLID_53_" cx="4.18133333" cy="33.2515556" rx="3.28533333" ry="3.48444444"></ellipse>
                    <path d="M21.1057778,19.4133333 L14.2364444,19.4133333 C14.2364444,19.4133333 14.2364444,19.4133333 14.2364444,19.4133333 C14.2364444,25.088 9.65688889,29.6675556 3.98222222,29.7671111 L3.98222222,36.6364444 C13.44,36.6364444 21.1057778,28.9706667 21.1057778,19.4133333 C21.1057778,19.4133333 21.1057778,19.4133333 21.1057778,19.4133333 Z" id="XMLID_52_"></path>
                </g>
                <text id="UNIUO.COM" font-family="ArialRoundedMTBold, Arial Rounded MT Bold" font-size="48.3952" font-weight="normal" letter-spacing="16">
                    <tspan x="44.4713671" y="46.377216">UNIUO.CO</tspan>
                    <tspan x="423.096119" y="46.377216">M</tspan>
                </text>
            </g>
            <path d="M126.236444,0.597333333 L21.7031111,0.597333333 C10.6524444,0.597333333 1.59288889,9.65688889 1.59288889,20.7075556 L1.59288889,125.240889 C1.59288889,136.291556 10.6524444,145.351111 21.7031111,145.351111 L126.236444,145.351111 C137.287111,145.351111 146.346667,136.291556 146.346667,125.240889 L146.346667,20.7075556 C146.346667,9.65688889 137.287111,0.597333333 126.236444,0.597333333 Z M13.1413333,53.0631111 C10.2542222,43.008 20.7075556,32.6542222 34.2471111,26.88 C36.736,25.8844444 37.8311111,27.3777778 36.3377778,28.8711111 C26.88,38.6275556 29.8666667,48.5831111 41.216,55.4524444 C58.1404444,65.7066667 81.6355556,65.9057778 99.8542222,59.0364444 C99.5555556,62.2222222 99.2568889,65.2088889 98.7591111,67.9964444 C98.3608889,70.4853333 97.8631111,72.7751111 97.2657778,74.9653333 C79.744,78.2506667 60.2311111,77.5537778 44.8,73.7706667 C25.1875556,69.0915556 15.232,60.2311111 13.1413333,53.0631111 Z M91.1928889,111.502222 C80.9386667,122.154667 68.5937778,122.055111 59.0364444,110.307556 C52.6648889,102.641778 49.9768889,95.2746667 47.488,80.9386667 C47.3884444,80.1422222 48.384,79.8435556 48.5831111,80.5404444 C51.7688889,88.9031111 54.4568889,92.7857778 59.3351111,98.0622222 C70.1866667,109.909333 81.8346667,105.130667 90.496,93.9804444 C99.3564444,82.5315556 103.736889,63.3173333 101.646222,32.9528889 C101.546667,31.7582222 101.447111,30.5635556 101.347556,29.3688889 C101.248,28.2737778 101.745778,28.1742222 102.144,29.1697778 C102.542222,30.464 102.940444,31.7582222 103.338667,33.0524444 C112.398222,65.6071111 105.130667,96.9671111 91.1928889,111.502222 Z M120.860444,67.1004444 C117.176889,69.0915556 112.995556,70.784 108.714667,72.1777778 C109.312,66.5031111 109.312,60.6293333 108.913778,54.4568889 C119.367111,47.3884444 120.96,37.5324444 111.701333,28.1742222 C110.805333,27.2782222 111.601778,26.5813333 112.896,27.0791111 C139.676444,37.2337778 142.563556,55.4524444 120.860444,67.1004444 Z" id="XMLID_9_"></path>
        </g>
    </g>
</svg>