<?xml version="1.0" encoding="UTF-8"?>
<svg width="287px" height="223px" viewBox="0 0 287 223" version="1.1" xmlns="http://www.w3.org/2000/svg" xmlns:xlink="http://www.w3.org/1999/xlink">
    <!-- Generator: Sketch 48.1 (47250) - http://www.bohemiancoding.com/sketch -->
    <title>Page 1</title>
    <desc>Created with Sketch.</desc>
    <defs></defs>
    <g id="Page-1" stroke="none" stroke-width="1" fill="none" fill-rule="evenodd">
        <g transform="translate(0.000000, -1.000000)" fill="#FF6600">
            <path d="M224.989359,71.5610764 C251.612464,53.4994708 253.761611,27.6044442 224.770059,4.24453371 C295.937522,27.0430344 305.92009,72.6137197 252.858092,101.070178 C244.138697,105.745669 234.59473,109.675538 224.506898,112.894872 C225.805158,99.6929701 226.024459,85.8243938 224.989359,71.5610764 M212.796241,78.4558903 C214.041869,77.8681645 215.26118,77.2628945 216.445404,76.6488526 C217.16471,90.1226876 216.743653,103.184237 215.322585,115.596657 C212.655888,116.315963 209.971648,116.982637 207.252319,117.614223 C208.20847,113.517686 209.068129,109.245709 209.804979,104.789518 C211.173415,96.6403043 212.173427,87.8770484 212.796241,78.4558903 M68.1981315,1.01642741 C31.5924587,26.9465421 35.9346126,55.3152806 66.7068867,74.0084722 C106.189785,97.9911966 161.155312,98.403482 203.647015,82.3418987 C203.041745,89.7718064 202.182087,96.7631127 201.085583,103.333362 C200.12066,109.087812 198.971524,114.517697 197.646948,119.63179 C156.725438,127.37749 111.137208,125.614313 75.0403133,116.807197 C29.2152392,105.631633 6.03076923,85.0612274 1.14474965,68.2715659 C-6.8992,40.6045897 28.7240056,11.6568973 68.1981315,1.01642741" id="Fill-1"></path>
            <path d="M206.628628,5.39630098 C214.233976,85.695445 204.119828,135.327579 181.900281,164.012111 C161.628124,190.187842 134.417293,201.187965 109.118765,173.617481 C94.9431676,158.161168 88.7062557,148.020704 78.6271955,117.213342 C85.5834137,161.643663 91.2764599,181.345638 108.338054,202.091484 C130.829534,229.451439 159.70705,229.749688 183.593282,204.793269 C218.505954,168.310404 235.348247,86.6603681 206.628628,5.39630098" id="Fill-3"></path>
        </g>
    </g>
</svg>