<?xml version="1.0" encoding="UTF-8"?>
<svg width="100px" height="100px" viewBox="0 0 100 100" version="1.1" xmlns="http://www.w3.org/2000/svg" xmlns:xlink="http://www.w3.org/1999/xlink">
    <!-- Generator: Sketch 48.1 (47250) - http://www.bohemiancoding.com/sketch -->
    <title>微信</title>
    <desc>Created with Sketch.</desc>
    <defs></defs>
    <g id="Page-1" stroke="none" stroke-width="1" fill="none" fill-rule="evenodd">
        <g id="微信">
            <g id="微信支付" transform="translate(20.000000, 10.000000)" fill="#47B23E" fill-rule="nonzero">
                <path d="M23.2454987,35.8877615 C19.595945,37.9462869 19.0546462,34.7320968 19.0546462,34.7320968 L14.4807137,23.9331648 C12.7207875,18.8016448 16.0038837,21.6194344 16.0038837,21.6194344 C16.0038837,21.6194344 18.82094,23.775627 20.9589137,25.0895266 C23.0957437,26.4034262 25.5313975,25.4752387 25.5313975,25.4752387 L55.4335975,11.510989 C49.9167575,4.56561529 40.8034337,0.0242038217 30.4860462,0.0242038217 C13.6482162,0.0242038217 0,12.1099271 0,27.0192489 C0,35.5949921 4.5193375,43.2276769 11.5587375,48.1747057 L10.2892512,55.5579944 C10.2892512,55.5579944 9.67040625,57.7134899 11.8151662,56.7137366 C13.27665,56.0320795 17.0024538,53.5893911 19.2203375,52.102773 C22.7070212,53.3320948 26.5056437,54.0146813 30.4877237,54.0146813 C47.3241812,54.0146813 60.9752187,41.928958 60.9752187,27.0193264 C60.9752187,22.7008224 59.8249112,18.6224978 57.7872825,15.0024581 C48.2603787,20.8019261 26.1012137,34.2796983 23.2454987,35.8877615 Z" id="Shape"></path>
            </g>
            <text id="微信支付" font-family="PingFangSC-Regular, PingFang SC" font-size="16" font-weight="normal" fill="#222222">
                <tspan x="18" y="89">微信支付</tspan>
            </text>
        </g>
    </g>
</svg>